<svg xmlns="http://www.w3.org/2000/svg" version="1.1" xmlns:xlink="http://www.w3.org/1999/xlink" xmlns:svgjs="http://svgjs.com/svgjs" width="512" height="512"><svg width="512" height="512" viewBox="0 0 512 512" fill="none" xmlns="http://www.w3.org/2000/svg">
<rect width="512" height="512" rx="48" fill="#2563EB" style="--darkreader-inline-fill: #1043b2;" data-darkreader-inline-fill=""></rect>
<path d="M256 151.276C276.764 137.48 304.96 129 336 129C367.058 129 395.236 137.48 416 151.276V382.387C395.236 368.591 367.058 360.111 336 360.111C304.96 360.111 276.764 368.591 256 382.387M256 151.276V382.387V151.276ZM256 151.276C235.236 137.48 207.04 129 176 129C144.96 129 116.764 137.48 96 151.276V382.387C116.764 368.591 144.96 360.111 176 360.111C207.04 360.111 235.236 368.591 256 382.387V151.276Z" stroke="white" stroke-width="24" stroke-linecap="round" stroke-linejoin="round" style="--darkreader-inline-stroke: #e8e6e3;" data-darkreader-inline-stroke=""></path>
</svg><style>@media (prefers-color-scheme: light) { :root { filter: none; } }
</style></svg>